<svg width="146" height="120" viewBox="0 0 146 120" fill="none" xmlns="http://www.w3.org/2000/svg">
<path d="M119.666 91.4231C120.698 72.7247 116.768 53.9604 102.376 40.0651C89.3859 27.5232 71.762 25.1598 63.3776 43.659C59.4085 52.4161 60.8412 65.2718 69.7115 70.8409C79.5937 77.0454 87.3225 67.489 87 60.0001C86.2469 42.5089 56.6781 44.2537 36.5 43.6591C12.6044 42.9549 0.852925 21.6981 0.999961 21.629" stroke="white" stroke-miterlimit="1.5" stroke-linecap="round" stroke-linejoin="round"/>
<path d="M136.351 77.7484C134.253 78.3209 132.627 79.6526 130.933 80.9028C125.372 85.0075 120.748 91.1069 119.633 97.8445C118.38 90.5721 114.171 81.5519 106.601 78.7138" stroke="white" stroke-miterlimit="1.5" stroke-linecap="round" stroke-linejoin="round"/>
</svg>
